<mxfile host="app.diagrams.net" agent="Mozilla/5.0 (Windows NT 10.0; Win64; x64) AppleWebKit/537.36 (KHTML, like Gecko) Chrome/132.0.0.0 Safari/537.36" version="26.0.14" pages="2">
  <diagram name="Halaman-1" id="6mauoHJxbwxYOIo2GaMX">
    <mxGraphModel dx="1592" dy="744" grid="1" gridSize="10" guides="1" tooltips="1" connect="1" arrows="1" fold="1" page="1" pageScale="1" pageWidth="827" pageHeight="1169" math="0" shadow="0">
      <root>
        <mxCell id="0" />
        <mxCell id="1" parent="0" />
        <mxCell id="VtA9cNqZad1sZP5H4mvO-2" style="edgeStyle=orthogonalEdgeStyle;rounded=0;orthogonalLoop=1;jettySize=auto;html=1;exitX=0.5;exitY=1;exitDx=0;exitDy=0;entryX=0.5;entryY=0;entryDx=0;entryDy=0;" parent="1" source="VtA9cNqZad1sZP5H4mvO-3" target="VtA9cNqZad1sZP5H4mvO-9" edge="1">
          <mxGeometry relative="1" as="geometry">
            <Array as="points">
              <mxPoint x="285" y="260" />
              <mxPoint x="414" y="260" />
            </Array>
          </mxGeometry>
        </mxCell>
        <mxCell id="VtA9cNqZad1sZP5H4mvO-3" value="&lt;div&gt;Serangan web defacement terutama perubahan laman website pemerintahan&amp;nbsp;&lt;span style=&quot;background-color: transparent; color: light-dark(rgb(0, 0, 0), rgb(255, 255, 255));&quot;&gt;seperti judi online&lt;/span&gt;&lt;span style=&quot;background-color: transparent; color: light-dark(rgb(0, 0, 0), rgb(255, 255, 255));&quot;&gt;&amp;nbsp;&lt;/span&gt;&lt;span style=&quot;background-color: transparent; color: light-dark(rgb(0, 0, 0), rgb(255, 255, 255));&quot;&gt;menyebabkan turunnya kepercayaan masyarakat terhadap instansi terkait&lt;/span&gt;&lt;/div&gt;" style="rounded=0;whiteSpace=wrap;html=1;" parent="1" vertex="1">
          <mxGeometry x="149.58" y="90.38999999999999" width="270" height="82.17" as="geometry" />
        </mxCell>
        <mxCell id="VtA9cNqZad1sZP5H4mvO-4" value="Identifikasi Masalah" style="rounded=0;whiteSpace=wrap;html=1;" parent="1" vertex="1">
          <mxGeometry x="149.58" y="70" width="120" height="20" as="geometry" />
        </mxCell>
        <mxCell id="VtA9cNqZad1sZP5H4mvO-6" value="Implementasi platform SIRP berbasis open source sebagai alat respon insiden" style="rounded=0;whiteSpace=wrap;html=1;" parent="1" vertex="1">
          <mxGeometry x="439" y="90" width="250" height="40.61" as="geometry" />
        </mxCell>
        <mxCell id="VtA9cNqZad1sZP5H4mvO-7" value="Peluang" style="rounded=0;whiteSpace=wrap;html=1;" parent="1" vertex="1">
          <mxGeometry x="439" y="72" width="115.79" height="17.39" as="geometry" />
        </mxCell>
        <mxCell id="VtA9cNqZad1sZP5H4mvO-8" style="edgeStyle=orthogonalEdgeStyle;rounded=0;orthogonalLoop=1;jettySize=auto;html=1;exitX=0.5;exitY=1;exitDx=0;exitDy=0;entryX=0.5;entryY=0;entryDx=0;entryDy=0;" parent="1" source="VtA9cNqZad1sZP5H4mvO-9" edge="1">
          <mxGeometry relative="1" as="geometry">
            <mxPoint x="414" y="429.16999999999996" as="targetPoint" />
          </mxGeometry>
        </mxCell>
        <mxCell id="VtA9cNqZad1sZP5H4mvO-9" value="Mengintegrasikan tools (Wazuh, TheHive, Cortex dan MISP) sebagai sistem deteksi dan management respon insiden melalui playbook serta penerapan script bash untuk program&amp;nbsp;&lt;i&gt;containment, eradication dan recovery&lt;/i&gt;&amp;nbsp;sebagai respon insiden otomatis terhadap serangan web defacement di lingkungan web server" style="rounded=0;whiteSpace=wrap;html=1;" parent="1" vertex="1">
          <mxGeometry x="139" y="307.3947826086956" width="550" height="82.17391304347827" as="geometry" />
        </mxCell>
        <mxCell id="VtA9cNqZad1sZP5H4mvO-10" value="Pendekatan" style="rounded=0;whiteSpace=wrap;html=1;" parent="1" vertex="1">
          <mxGeometry x="139" y="280" width="110" height="27.39" as="geometry" />
        </mxCell>
        <mxCell id="VtA9cNqZad1sZP5H4mvO-11" style="edgeStyle=orthogonalEdgeStyle;rounded=0;orthogonalLoop=1;jettySize=auto;html=1;entryX=0.5;entryY=0;entryDx=0;entryDy=0;" parent="1" target="VtA9cNqZad1sZP5H4mvO-13" edge="1">
          <mxGeometry relative="1" as="geometry">
            <mxPoint x="414" y="528.39" as="sourcePoint" />
            <Array as="points">
              <mxPoint x="414" y="528.39" />
              <mxPoint x="414" y="528.39" />
            </Array>
          </mxGeometry>
        </mxCell>
        <mxCell id="VtA9cNqZad1sZP5H4mvO-12" value="Implementasi" style="rounded=0;whiteSpace=wrap;html=1;" parent="1" vertex="1">
          <mxGeometry x="139" y="401.78" width="110" height="27.39" as="geometry" />
        </mxCell>
        <mxCell id="VtA9cNqZad1sZP5H4mvO-13" value="Sistem deteksi dan respon insiden otomatis berdasarkan Framework IRLC NIST 800-61r2 dalam bentuk OVA monitoring dan program Script Bash sebagai respon insiden" style="rounded=0;whiteSpace=wrap;html=1;" parent="1" vertex="1">
          <mxGeometry x="139" y="577.4" width="550" height="62.6" as="geometry" />
        </mxCell>
        <mxCell id="VtA9cNqZad1sZP5H4mvO-14" value="Hasil" style="rounded=0;whiteSpace=wrap;html=1;" parent="1" vertex="1">
          <mxGeometry x="139" y="549.9999999999999" width="110" height="27.39" as="geometry" />
        </mxCell>
        <mxCell id="Y2xgmXw28UJ3BgCxXsSr-8" value="" style="group" vertex="1" connectable="0" parent="1">
          <mxGeometry x="139" y="429.16999999999996" width="550" height="28.22" as="geometry" />
        </mxCell>
        <mxCell id="Y2xgmXw28UJ3BgCxXsSr-1" value="Awareness of Problem" style="rounded=0;whiteSpace=wrap;html=1;" vertex="1" parent="Y2xgmXw28UJ3BgCxXsSr-8">
          <mxGeometry width="110" height="28.22" as="geometry" />
        </mxCell>
        <mxCell id="Y2xgmXw28UJ3BgCxXsSr-2" value="Suggestion" style="rounded=0;whiteSpace=wrap;html=1;" vertex="1" parent="Y2xgmXw28UJ3BgCxXsSr-8">
          <mxGeometry x="110" width="110" height="28.22" as="geometry" />
        </mxCell>
        <mxCell id="Y2xgmXw28UJ3BgCxXsSr-3" value="Development" style="rounded=0;whiteSpace=wrap;html=1;" vertex="1" parent="Y2xgmXw28UJ3BgCxXsSr-8">
          <mxGeometry x="220" width="110" height="28.22" as="geometry" />
        </mxCell>
        <mxCell id="Y2xgmXw28UJ3BgCxXsSr-6" value="Evaluation" style="rounded=0;whiteSpace=wrap;html=1;" vertex="1" parent="Y2xgmXw28UJ3BgCxXsSr-8">
          <mxGeometry x="330" width="110" height="28.22" as="geometry" />
        </mxCell>
        <mxCell id="Y2xgmXw28UJ3BgCxXsSr-7" value="Conclusion" style="rounded=0;whiteSpace=wrap;html=1;" vertex="1" parent="Y2xgmXw28UJ3BgCxXsSr-8">
          <mxGeometry x="440" width="110" height="28.22" as="geometry" />
        </mxCell>
        <mxCell id="Y2xgmXw28UJ3BgCxXsSr-9" value="" style="group" vertex="1" connectable="0" parent="1">
          <mxGeometry x="139" y="457.39" width="550" height="70" as="geometry" />
        </mxCell>
        <mxCell id="Y2xgmXw28UJ3BgCxXsSr-10" value="Melakukan studi literatur dan pencarian referensi" style="rounded=0;whiteSpace=wrap;html=1;" vertex="1" parent="Y2xgmXw28UJ3BgCxXsSr-9">
          <mxGeometry width="110" height="70" as="geometry" />
        </mxCell>
        <mxCell id="Y2xgmXw28UJ3BgCxXsSr-11" value="Pembuatan solusi dalam bentuk perancangan desain sistem" style="rounded=0;whiteSpace=wrap;html=1;" vertex="1" parent="Y2xgmXw28UJ3BgCxXsSr-9">
          <mxGeometry x="110" width="110" height="70" as="geometry" />
        </mxCell>
        <mxCell id="Y2xgmXw28UJ3BgCxXsSr-12" value="Membangun sistem yang telah dirancang" style="rounded=0;whiteSpace=wrap;html=1;" vertex="1" parent="Y2xgmXw28UJ3BgCxXsSr-9">
          <mxGeometry x="220" width="110" height="70" as="geometry" />
        </mxCell>
        <mxCell id="Y2xgmXw28UJ3BgCxXsSr-13" value="Melakukan uji sistem" style="rounded=0;whiteSpace=wrap;html=1;" vertex="1" parent="Y2xgmXw28UJ3BgCxXsSr-9">
          <mxGeometry x="330" width="110" height="70" as="geometry" />
        </mxCell>
        <mxCell id="Y2xgmXw28UJ3BgCxXsSr-14" value="Mengambil kesimpulan berdasarkan hasil evaluasi" style="rounded=0;whiteSpace=wrap;html=1;" vertex="1" parent="Y2xgmXw28UJ3BgCxXsSr-9">
          <mxGeometry x="440" width="110" height="70" as="geometry" />
        </mxCell>
        <mxCell id="Y2xgmXw28UJ3BgCxXsSr-15" value="Implementasi framework Manajemen Insiden Keamanan Siber sebagai panduan prosedural penyelesaian insiden siber" style="rounded=0;whiteSpace=wrap;html=1;" vertex="1" parent="1">
          <mxGeometry x="439" y="130.95" width="250" height="49.05" as="geometry" />
        </mxCell>
        <mxCell id="Y2xgmXw28UJ3BgCxXsSr-17" value="&lt;div&gt;Implementasi FIle integrity monitor untuk metode deteksi insiden keamanan siber secara real time&lt;/div&gt;" style="rounded=0;whiteSpace=wrap;html=1;" vertex="1" parent="1">
          <mxGeometry x="439" y="180" width="250" height="50" as="geometry" />
        </mxCell>
        <mxCell id="Y2xgmXw28UJ3BgCxXsSr-18" value="&lt;font style=&quot;font-size: 12px;&quot; face=&quot;Helvetica&quot;&gt;keterbatasan pemerintah daerah untuk mengadopsi sistem&lt;br&gt;keamanan siber yang komprehensif&lt;/font&gt;" style="rounded=0;whiteSpace=wrap;html=1;" vertex="1" parent="1">
          <mxGeometry x="149.58" y="172.56" width="270" height="57.44" as="geometry" />
        </mxCell>
        <mxCell id="Y2xgmXw28UJ3BgCxXsSr-19" value="" style="endArrow=classic;html=1;rounded=0;exitX=0.531;exitY=1.038;exitDx=0;exitDy=0;exitPerimeter=0;entryX=0.5;entryY=0;entryDx=0;entryDy=0;" edge="1" parent="1" source="Y2xgmXw28UJ3BgCxXsSr-17" target="VtA9cNqZad1sZP5H4mvO-9">
          <mxGeometry width="50" height="50" relative="1" as="geometry">
            <mxPoint x="590" y="290" as="sourcePoint" />
            <mxPoint x="420" y="390" as="targetPoint" />
            <Array as="points">
              <mxPoint x="572" y="260" />
              <mxPoint x="520" y="260" />
              <mxPoint x="470" y="260" />
              <mxPoint x="414" y="260" />
            </Array>
          </mxGeometry>
        </mxCell>
      </root>
    </mxGraphModel>
  </diagram>
  <diagram id="C2xoGTuo4fgK7YNonvbQ" name="Halaman-2">
    <mxGraphModel dx="1038" dy="485" grid="1" gridSize="10" guides="1" tooltips="1" connect="1" arrows="1" fold="1" page="1" pageScale="1" pageWidth="827" pageHeight="1169" math="0" shadow="0">
      <root>
        <mxCell id="0" />
        <mxCell id="1" parent="0" />
        <mxCell id="vxJSNL3y_xasg0puU725-2" value="" style="edgeStyle=none;curved=1;rounded=1;orthogonalLoop=1;jettySize=auto;html=1;fontSize=12;startSize=8;endSize=8;" edge="1" parent="1" source="vxJSNL3y_xasg0puU725-3" target="vxJSNL3y_xasg0puU725-5">
          <mxGeometry relative="1" as="geometry" />
        </mxCell>
        <mxCell id="vxJSNL3y_xasg0puU725-3" value="&lt;i&gt;Awareness of Problem&lt;/i&gt;" style="rounded=1;whiteSpace=wrap;html=1;" vertex="1" parent="1">
          <mxGeometry x="93" y="40" width="120" height="48.91891891891892" as="geometry" />
        </mxCell>
        <mxCell id="vxJSNL3y_xasg0puU725-60" style="edgeStyle=orthogonalEdgeStyle;rounded=0;orthogonalLoop=1;jettySize=auto;html=1;exitX=0.5;exitY=1;exitDx=0;exitDy=0;" edge="1" parent="1">
          <mxGeometry relative="1" as="geometry">
            <mxPoint x="156.5" y="167.18918918918922" as="sourcePoint" />
            <mxPoint x="154" y="250" as="targetPoint" />
            <Array as="points">
              <mxPoint x="153.5" y="167" />
            </Array>
          </mxGeometry>
        </mxCell>
        <mxCell id="vxJSNL3y_xasg0puU725-5" value="&lt;i&gt;Suggestion&lt;/i&gt;" style="rounded=1;whiteSpace=wrap;html=1;" vertex="1" parent="1">
          <mxGeometry x="93" y="118.27027027027026" width="120" height="48.91891891891892" as="geometry" />
        </mxCell>
        <mxCell id="vxJSNL3y_xasg0puU725-6" style="edgeStyle=none;curved=1;rounded=1;orthogonalLoop=1;jettySize=auto;html=1;entryX=0.5;entryY=0;entryDx=0;entryDy=0;fontSize=12;startSize=8;endSize=8;" edge="1" parent="1">
          <mxGeometry relative="1" as="geometry">
            <mxPoint x="154" y="300" as="sourcePoint" />
            <mxPoint x="154" y="400.0008108108109" as="targetPoint" />
          </mxGeometry>
        </mxCell>
        <mxCell id="vxJSNL3y_xasg0puU725-7" value="&lt;i&gt;Development&lt;/i&gt;" style="rounded=1;whiteSpace=wrap;html=1;" vertex="1" parent="1">
          <mxGeometry x="90" y="251.0805405405405" width="120" height="48.91891891891892" as="geometry" />
        </mxCell>
        <mxCell id="vxJSNL3y_xasg0puU725-8" value="&lt;i&gt;Evaluation&lt;/i&gt;" style="rounded=1;whiteSpace=wrap;html=1;" vertex="1" parent="1">
          <mxGeometry x="90" y="400.00081081081083" width="120" height="48.91891891891892" as="geometry" />
        </mxCell>
        <mxCell id="vxJSNL3y_xasg0puU725-9" value="&lt;i&gt;Conclusion&lt;/i&gt;" style="rounded=1;whiteSpace=wrap;html=1;" vertex="1" parent="1">
          <mxGeometry x="93" y="478.27108108108104" width="120" height="48.91891891891892" as="geometry" />
        </mxCell>
        <mxCell id="vxJSNL3y_xasg0puU725-10" style="edgeStyle=none;curved=1;rounded=1;orthogonalLoop=1;jettySize=auto;html=1;exitX=0.5;exitY=1;exitDx=0;exitDy=0;entryX=0.473;entryY=0.006;entryDx=0;entryDy=0;entryPerimeter=0;fontSize=12;startSize=8;endSize=8;" edge="1" parent="1">
          <mxGeometry relative="1" as="geometry">
            <mxPoint x="155" y="448.91972972972974" as="sourcePoint" />
            <mxPoint x="154.76" y="478.5645945945945" as="targetPoint" />
          </mxGeometry>
        </mxCell>
        <mxCell id="vxJSNL3y_xasg0puU725-11" value="" style="endArrow=none;dashed=1;html=1;dashPattern=1 3;strokeWidth=2;rounded=1;fontSize=12;startSize=8;endSize=8;curved=1;entryX=0;entryY=0.5;entryDx=0;entryDy=0;" edge="1" parent="1">
          <mxGeometry width="50" height="50" relative="1" as="geometry">
            <mxPoint x="215" y="64.45945945945945" as="sourcePoint" />
            <mxPoint x="280" y="64.45945945945945" as="targetPoint" />
          </mxGeometry>
        </mxCell>
        <mxCell id="vxJSNL3y_xasg0puU725-12" value="Pencarian referensi dan studi literatur" style="rounded=1;whiteSpace=wrap;html=1;" vertex="1" parent="1">
          <mxGeometry x="276" y="40" width="172" height="48.91891891891892" as="geometry" />
        </mxCell>
        <mxCell id="vxJSNL3y_xasg0puU725-13" value="" style="endArrow=none;dashed=1;html=1;dashPattern=1 3;strokeWidth=2;rounded=1;fontSize=12;startSize=8;endSize=8;curved=1;entryX=0;entryY=0.5;entryDx=0;entryDy=0;" edge="1" parent="1">
          <mxGeometry width="50" height="50" relative="1" as="geometry">
            <mxPoint x="215" y="142.7297297297297" as="sourcePoint" />
            <mxPoint x="280" y="142.7297297297297" as="targetPoint" />
          </mxGeometry>
        </mxCell>
        <mxCell id="vxJSNL3y_xasg0puU725-14" value="Pengusulan konsep untuk solusi permasalahan melalui perencanaan pembangunan sistem" style="rounded=1;whiteSpace=wrap;html=1;" vertex="1" parent="1">
          <mxGeometry x="276" y="111.74774774774774" width="172" height="62.77927927927928" as="geometry" />
        </mxCell>
        <mxCell id="vxJSNL3y_xasg0puU725-15" value="" style="endArrow=none;dashed=1;html=1;dashPattern=1 3;strokeWidth=2;rounded=1;fontSize=12;startSize=8;endSize=8;curved=1;entryX=0;entryY=0.5;entryDx=0;entryDy=0;" edge="1" parent="1">
          <mxGeometry width="50" height="50" relative="1" as="geometry">
            <mxPoint x="210" y="272.17" as="sourcePoint" />
            <mxPoint x="275" y="272.17" as="targetPoint" />
          </mxGeometry>
        </mxCell>
        <mxCell id="vxJSNL3y_xasg0puU725-62" value="" style="edgeStyle=orthogonalEdgeStyle;rounded=0;orthogonalLoop=1;jettySize=auto;html=1;" edge="1" parent="1" source="vxJSNL3y_xasg0puU725-16" target="vxJSNL3y_xasg0puU725-18">
          <mxGeometry relative="1" as="geometry" />
        </mxCell>
        <mxCell id="vxJSNL3y_xasg0puU725-16" value="Implementasi rencana dan analisis kebutuhan pembangunan Sistem" style="rounded=1;whiteSpace=wrap;html=1;" vertex="1" parent="1">
          <mxGeometry x="272.5" y="250.00054054054053" width="175" height="48.91891891891892" as="geometry" />
        </mxCell>
        <mxCell id="vxJSNL3y_xasg0puU725-17" value="" style="endArrow=none;dashed=1;html=1;dashPattern=1 3;strokeWidth=2;rounded=1;fontSize=12;startSize=8;endSize=8;curved=1;entryX=0;entryY=0.5;entryDx=0;entryDy=0;" edge="1" parent="1">
          <mxGeometry width="50" height="50" relative="1" as="geometry">
            <mxPoint x="211" y="424.46027027027026" as="sourcePoint" />
            <mxPoint x="276" y="424.46027027027026" as="targetPoint" />
          </mxGeometry>
        </mxCell>
        <mxCell id="vxJSNL3y_xasg0puU725-18" value="Pengujain sistem melalui skenario serangan" style="rounded=1;whiteSpace=wrap;html=1;" vertex="1" parent="1">
          <mxGeometry x="273" y="400.00081081081083" width="172" height="48.91891891891892" as="geometry" />
        </mxCell>
        <mxCell id="vxJSNL3y_xasg0puU725-19" value="" style="endArrow=none;dashed=1;html=1;dashPattern=1 3;strokeWidth=2;rounded=1;fontSize=12;startSize=8;endSize=8;curved=1;entryX=0;entryY=0.5;entryDx=0;entryDy=0;" edge="1" parent="1">
          <mxGeometry width="50" height="50" relative="1" as="geometry">
            <mxPoint x="214" y="502.7305405405405" as="sourcePoint" />
            <mxPoint x="279" y="502.7305405405405" as="targetPoint" />
          </mxGeometry>
        </mxCell>
        <mxCell id="vxJSNL3y_xasg0puU725-20" value="Pembuatan Kesimpulan Penelitian" style="rounded=1;whiteSpace=wrap;html=1;" vertex="1" parent="1">
          <mxGeometry x="274" y="478.27108108108104" width="172" height="48.91891891891892" as="geometry" />
        </mxCell>
        <mxCell id="vxJSNL3y_xasg0puU725-43" value="&lt;i&gt;Permasalahan&lt;/i&gt;" style="rounded=1;whiteSpace=wrap;html=1;" vertex="1" parent="1">
          <mxGeometry x="513" y="40" width="177" height="48.92" as="geometry" />
        </mxCell>
        <mxCell id="vxJSNL3y_xasg0puU725-45" value="&lt;i&gt;Desain topologi Sistem, tabel rancangan otomasi dan penentuan TTP Mitre Att&amp;amp;ck&lt;/i&gt;" style="rounded=1;whiteSpace=wrap;html=1;" vertex="1" parent="1">
          <mxGeometry x="513" y="118.27" width="177" height="48.92" as="geometry" />
        </mxCell>
        <mxCell id="vxJSNL3y_xasg0puU725-47" value="&lt;div&gt;&lt;i&gt;&lt;b&gt;Requirement analysis&lt;/b&gt;&lt;/i&gt;&lt;/div&gt;&lt;div&gt;&lt;i style=&quot;background-color: transparent; color: light-dark(rgb(0, 0, 0), rgb(255, 255, 255));&quot;&gt;tabel kebutuhan spesifikasi sistem dan pemetaan tools&lt;/i&gt;&lt;/div&gt;" style="rounded=1;whiteSpace=wrap;html=1;" vertex="1" parent="1">
          <mxGeometry x="510" y="196.54" width="180" height="53.46" as="geometry" />
        </mxCell>
        <mxCell id="vxJSNL3y_xasg0puU725-48" value="&lt;div&gt;&lt;i&gt;Hasil Pengujian Melalui Serangan berdasarkan framework Mitre Att&amp;amp;ck&lt;/i&gt;&lt;/div&gt;" style="rounded=1;whiteSpace=wrap;html=1;" vertex="1" parent="1">
          <mxGeometry x="513" y="400" width="170" height="48.92" as="geometry" />
        </mxCell>
        <mxCell id="vxJSNL3y_xasg0puU725-49" value="&lt;i&gt;Penarikan kesimpulan&lt;/i&gt;" style="rounded=1;whiteSpace=wrap;html=1;" vertex="1" parent="1">
          <mxGeometry x="513" y="478.27" width="167" height="48.92" as="geometry" />
        </mxCell>
        <mxCell id="vxJSNL3y_xasg0puU725-51" value="" style="endArrow=none;dashed=1;html=1;dashPattern=1 3;strokeWidth=2;rounded=1;fontSize=12;startSize=8;endSize=8;curved=1;entryX=0;entryY=0.5;entryDx=0;entryDy=0;" edge="1" parent="1">
          <mxGeometry width="50" height="50" relative="1" as="geometry">
            <mxPoint x="449" y="63.95945945945945" as="sourcePoint" />
            <mxPoint x="514" y="63.95945945945945" as="targetPoint" />
          </mxGeometry>
        </mxCell>
        <mxCell id="vxJSNL3y_xasg0puU725-52" value="" style="endArrow=none;dashed=1;html=1;dashPattern=1 3;strokeWidth=2;rounded=1;fontSize=12;startSize=8;endSize=8;curved=1;entryX=0;entryY=0.5;entryDx=0;entryDy=0;" edge="1" parent="1">
          <mxGeometry width="50" height="50" relative="1" as="geometry">
            <mxPoint x="449" y="142.2297297297297" as="sourcePoint" />
            <mxPoint x="514" y="142.2297297297297" as="targetPoint" />
          </mxGeometry>
        </mxCell>
        <mxCell id="vxJSNL3y_xasg0puU725-53" value="" style="endArrow=none;dashed=1;html=1;dashPattern=1 3;strokeWidth=2;rounded=1;fontSize=12;startSize=8;endSize=8;curved=1;entryX=0;entryY=0.5;entryDx=0;entryDy=0;" edge="1" parent="1">
          <mxGeometry width="50" height="50" relative="1" as="geometry">
            <mxPoint x="448" y="274.17" as="sourcePoint" />
            <mxPoint x="513" y="274.17" as="targetPoint" />
          </mxGeometry>
        </mxCell>
        <mxCell id="vxJSNL3y_xasg0puU725-54" value="" style="endArrow=none;dashed=1;html=1;dashPattern=1 3;strokeWidth=2;rounded=1;fontSize=12;startSize=8;endSize=8;curved=1;entryX=0;entryY=0.5;entryDx=0;entryDy=0;" edge="1" parent="1">
          <mxGeometry width="50" height="50" relative="1" as="geometry">
            <mxPoint x="446" y="423.96027027027026" as="sourcePoint" />
            <mxPoint x="511" y="423.96027027027026" as="targetPoint" />
          </mxGeometry>
        </mxCell>
        <mxCell id="vxJSNL3y_xasg0puU725-55" value="" style="endArrow=none;dashed=1;html=1;dashPattern=1 3;strokeWidth=2;rounded=1;fontSize=12;startSize=8;endSize=8;curved=1;entryX=0;entryY=0.5;entryDx=0;entryDy=0;" edge="1" parent="1">
          <mxGeometry width="50" height="50" relative="1" as="geometry">
            <mxPoint x="449" y="502.2305405405405" as="sourcePoint" />
            <mxPoint x="514" y="502.2305405405405" as="targetPoint" />
          </mxGeometry>
        </mxCell>
        <mxCell id="vxJSNL3y_xasg0puU725-58" value="&lt;div&gt;&lt;i style=&quot;background-color: transparent; color: light-dark(rgb(0, 0, 0), rgb(255, 255, 255));&quot;&gt;&lt;b&gt;Implementation&amp;nbsp;&lt;/b&gt;&lt;/i&gt;&lt;/div&gt;&lt;div&gt;&lt;i style=&quot;background-color: transparent; color: light-dark(rgb(0, 0, 0), rgb(255, 255, 255));&quot;&gt;Produk sistem berupa script bash dan OVA server monitoring&lt;/i&gt;&lt;/div&gt;" style="rounded=1;whiteSpace=wrap;html=1;" vertex="1" parent="1">
          <mxGeometry x="509.5" y="310" width="180.5" height="50" as="geometry" />
        </mxCell>
        <mxCell id="vxJSNL3y_xasg0puU725-59" value="&lt;div&gt;&lt;i style=&quot;background-color: transparent; color: light-dark(rgb(0, 0, 0), rgb(255, 255, 255));&quot;&gt;&lt;b&gt;Design&amp;nbsp;&lt;/b&gt;&lt;/i&gt;&lt;/div&gt;&lt;div&gt;&lt;i style=&quot;background-color: transparent; color: light-dark(rgb(0, 0, 0), rgb(255, 255, 255));&quot;&gt;Rancangan detail diagram alur cara kerja sistem&lt;/i&gt;&lt;/div&gt;" style="rounded=1;whiteSpace=wrap;html=1;" vertex="1" parent="1">
          <mxGeometry x="510" y="250" width="180" height="60" as="geometry" />
        </mxCell>
      </root>
    </mxGraphModel>
  </diagram>
</mxfile>
